<svg width="43" height="43" viewBox="0 0 43 43" fill="none" xmlns="http://www.w3.org/2000/svg">
<rect y="-0.000106812" width="43" height="43" rx="9" fill="#529B03"/>
<path fill-rule="evenodd" clip-rule="evenodd" d="M21.3455 3.09342C22.2516 3.09342 22.9862 3.82594 22.9862 4.72955L22.9862 10.047C22.9862 10.9506 22.2516 11.6831 21.3455 11.6831C20.4395 11.6831 19.7049 10.9506 19.7049 10.047L19.7049 4.72955C19.7049 3.82594 20.4395 3.09342 21.3455 3.09342ZM3.09375 15.3644C3.09375 14.009 4.19554 12.9102 5.55467 12.9102H16.4237C18.3837 12.9102 20.1431 13.7671 21.3455 15.1258C22.548 13.7671 24.3074 12.9102 26.2674 12.9102H37.1364C38.4956 12.9102 39.5973 14.009 39.5973 15.3644V21.2954C39.5973 24.9098 36.6592 27.8399 33.0349 27.8399H22.9862V38.2702C22.9862 39.1739 22.2516 39.9064 21.3455 39.9064C20.4395 39.9064 19.7049 39.1739 19.7049 38.2702V19.4547C19.7049 17.6475 18.2359 16.1825 16.4237 16.1825H6.37497V21.2954C6.37497 23.1026 7.84403 24.5676 9.65619 24.5676H15.1933C16.0993 24.5676 16.8339 25.3002 16.8339 26.2038C16.8339 27.1074 16.0993 27.8399 15.1933 27.8399H9.65619C6.03186 27.8399 3.09375 24.9098 3.09375 21.2954V15.3644ZM22.9862 19.4547V24.5676H33.0349C34.8471 24.5676 36.3161 23.1026 36.3161 21.2954V16.1825H26.2674C24.4552 16.1825 22.9862 17.6475 22.9862 19.4547Z" fill="white"/>
</svg>
