<svg width="39" height="39" viewBox="0 0 39 39" fill="none" xmlns="http://www.w3.org/2000/svg">
<rect width="39" height="39" rx="9" fill="white"/>
<path fill-rule="evenodd" clip-rule="evenodd" d="M19.3596 2.80573C20.1814 2.80573 20.8476 3.4701 20.8476 4.28966V9.11244C20.8476 9.93199 20.1814 10.5964 19.3596 10.5964C18.5378 10.5964 17.8716 9.93199 17.8716 9.11244L17.8716 4.28966C17.8716 3.4701 18.5378 2.80572 19.3596 2.80573ZM2.80566 13.9352C2.80566 12.7059 3.80496 11.7093 5.03766 11.7093H14.8956C16.6733 11.7093 18.269 12.4865 19.3596 13.7188C20.4502 12.4865 22.0459 11.7093 23.8236 11.7093H33.6816C34.9143 11.7093 35.9136 12.7059 35.9136 13.9352V19.3145C35.9136 22.5927 33.2488 25.2502 29.9616 25.2502H20.8476V34.7103C20.8476 35.5298 20.1814 36.1942 19.3596 36.1942C18.5378 36.1942 17.8716 35.5298 17.8716 34.7103V17.6451C17.8716 16.0059 16.5392 14.6772 14.8956 14.6772H5.78166V19.3145C5.78166 20.9536 7.11405 22.2823 8.75765 22.2823H13.7796C14.6014 22.2823 15.2676 22.9467 15.2676 23.7663C15.2676 24.5858 14.6014 25.2502 13.7796 25.2502H8.75765C5.47046 25.2502 2.80566 22.5927 2.80566 19.3145V13.9352ZM20.8476 17.6451V22.2823H29.9616C31.6052 22.2823 32.9376 20.9536 32.9376 19.3145V14.6772H23.8236C22.18 14.6772 20.8476 16.0059 20.8476 17.6451Z" fill="#529B03"/>
</svg>
