<svg width="102" height="102" viewBox="0 0 102 102" fill="none" xmlns="http://www.w3.org/2000/svg">
<path fill-rule="evenodd" clip-rule="evenodd" d="M50.5714 0C53.082 8.10623e-07 55.1172 2.02964 55.1172 4.53333L55.1172 19.2667C55.1172 21.7704 53.082 23.8 50.5714 23.8C48.0609 23.8 46.0257 21.7704 46.0257 19.2667L46.0257 4.53333C46.0257 2.02964 48.0609 -5.40415e-07 50.5714 0ZM0 34C0 30.2445 3.0528 27.2 6.81862 27.2H36.9342C42.365 27.2 47.2396 29.5744 50.5714 33.3389C53.9032 29.5744 58.7779 27.2 64.2087 27.2H94.3242C98.09 27.2 101.143 30.2445 101.143 34V50.4333C101.143 60.4481 93.0021 68.5667 82.9599 68.5667H55.1172V97.4667C55.1172 99.9704 53.082 102 50.5714 102C48.0609 102 46.0257 99.9704 46.0257 97.4667V45.3333C46.0257 40.326 41.9553 36.2667 36.9342 36.2667H9.09149V50.4333C9.09149 55.4407 13.1619 59.5 18.183 59.5H33.5249C36.0354 59.5 38.0706 61.5296 38.0706 64.0333C38.0706 66.537 36.0354 68.5667 33.5249 68.5667H18.183C8.1408 68.5667 0 60.4481 0 50.4333V34ZM55.1172 45.3333V59.5H82.9599C87.981 59.5 92.0514 55.4407 92.0514 50.4333V36.2667H64.2087C59.1876 36.2667 55.1172 40.326 55.1172 45.3333Z" fill="white"/>
</svg>
