<svg width="195" height="39" viewBox="0 0 195 39" fill="none" xmlns="http://www.w3.org/2000/svg">
<rect width="39" height="39" rx="9" fill="#529B03"/>
<path fill-rule="evenodd" clip-rule="evenodd" d="M19.3597 2.80573C20.1815 2.80573 20.8477 3.4701 20.8477 4.28966V9.11244C20.8477 9.93199 20.1815 10.5964 19.3597 10.5964C18.5379 10.5964 17.8717 9.93199 17.8717 9.11244L17.8717 4.28966C17.8717 3.4701 18.5379 2.80572 19.3597 2.80573ZM2.80573 13.9352C2.80573 12.7059 3.80502 11.7093 5.03772 11.7093H14.8957C16.6734 11.7093 18.2691 12.4865 19.3597 13.7188C20.4503 12.4865 22.046 11.7093 23.8237 11.7093H33.6816C34.9143 11.7093 35.9136 12.7059 35.9136 13.9352V19.3145C35.9136 22.5927 33.2488 25.2502 29.9617 25.2502H20.8477V34.7103C20.8477 35.5298 20.1815 36.1942 19.3597 36.1942C18.5379 36.1942 17.8717 35.5298 17.8717 34.7103V17.6451C17.8717 16.0059 16.5393 14.6772 14.8957 14.6772H5.78172V19.3145C5.78172 20.9536 7.11411 22.2823 8.75771 22.2823H13.7797C14.6015 22.2823 15.2677 22.9467 15.2677 23.7663C15.2677 24.5858 14.6015 25.2502 13.7797 25.2502H8.75771C5.47052 25.2502 2.80573 22.5927 2.80573 19.3145V13.9352ZM20.8477 17.6451V22.2823H29.9617C31.6052 22.2823 32.9376 20.9536 32.9376 19.3145V14.6772H23.8237C22.1801 14.6772 20.8477 16.0059 20.8477 17.6451Z" fill="white"/>
<path d="M56.8262 27H54.4727V14.7148H50.293V12.7227H60.9961V14.7148H56.8262V27ZM71.2695 27H63.1836V12.7227H71.2695V14.6953H65.5273V18.5723H70.9082V20.5352H65.5273V25.0176H71.2695V27ZM80.5176 27L76.4062 15.0762H76.3184C76.3379 15.3431 76.3607 15.7077 76.3867 16.1699C76.4128 16.6322 76.4355 17.127 76.4551 17.6543C76.4746 18.1816 76.4844 18.6862 76.4844 19.168V27H74.3555V12.7227H77.6465L81.6016 24.1191H81.6602L85.752 12.7227H89.0332V27H86.7969V19.0508C86.7969 18.6146 86.8034 18.1426 86.8164 17.6348C86.8359 17.127 86.8555 16.6452 86.875 16.1895C86.901 15.7337 86.9206 15.3691 86.9336 15.0957H86.8555L82.5879 27H80.5176ZM101.641 27L100.244 23.0352H94.7852L93.3887 27H90.918L96.2305 12.6641H98.8281L104.131 27H101.641ZM99.6387 21.0234L98.2812 17.1172C98.2292 16.9479 98.1543 16.7103 98.0566 16.4043C97.959 16.0918 97.8613 15.776 97.7637 15.457C97.666 15.1315 97.5846 14.8581 97.5195 14.6367C97.4544 14.9036 97.373 15.2031 97.2754 15.5352C97.1842 15.8607 97.0931 16.1667 97.002 16.4531C96.9173 16.7396 96.8522 16.9609 96.8066 17.1172L95.4395 21.0234H99.6387ZM117.93 27H115.049L108.057 15.6035H107.969C107.995 15.9876 108.018 16.3945 108.037 16.8242C108.063 17.2539 108.083 17.6966 108.096 18.1523C108.115 18.6081 108.132 19.0703 108.145 19.5391V27H106.016V12.7227H108.877L115.859 24.041H115.928C115.915 23.709 115.898 23.3281 115.879 22.8984C115.859 22.4688 115.84 22.026 115.82 21.5703C115.807 21.1081 115.798 20.6621 115.791 20.2324V12.7227H117.93V27ZM131.025 12.7227C132.868 12.7227 134.212 13.1003 135.059 13.8555C135.905 14.6107 136.328 15.6686 136.328 17.0293C136.328 17.6478 136.23 18.237 136.035 18.7969C135.846 19.3503 135.534 19.8418 135.098 20.2715C134.661 20.6947 134.085 21.0299 133.369 21.2773C132.66 21.5247 131.784 21.6484 130.742 21.6484H129.219V27H126.875V12.7227H131.025ZM130.869 14.666H129.219V19.6953H130.498C131.234 19.6953 131.859 19.6107 132.373 19.4414C132.887 19.2656 133.278 18.9889 133.545 18.6113C133.812 18.2337 133.945 17.7357 133.945 17.1172C133.945 16.2904 133.695 15.6751 133.193 15.2715C132.699 14.8678 131.924 14.666 130.869 14.666ZM147.266 27H139.18V12.7227H147.266V14.6953H141.523V18.5723H146.904V20.5352H141.523V25.0176H147.266V27ZM155.303 27H152.949V14.7148H148.77V12.7227H159.473V14.7148H155.303V27ZM170.508 27L169.111 23.0352H163.652L162.256 27H159.785L165.098 12.6641H167.695L172.998 27H170.508ZM168.506 21.0234L167.148 17.1172C167.096 16.9479 167.021 16.7103 166.924 16.4043C166.826 16.0918 166.729 15.776 166.631 15.457C166.533 15.1315 166.452 14.8581 166.387 14.6367C166.322 14.9036 166.24 15.2031 166.143 15.5352C166.051 15.8607 165.96 16.1667 165.869 16.4531C165.785 16.7396 165.719 16.9609 165.674 17.1172L164.307 21.0234H168.506ZM186.797 27H183.916L176.924 15.6035H176.836C176.862 15.9876 176.885 16.3945 176.904 16.8242C176.93 17.2539 176.95 17.6966 176.963 18.1523C176.982 18.6081 176.999 19.0703 177.012 19.5391V27H174.883V12.7227H177.744L184.727 24.041H184.795C184.782 23.709 184.766 23.3281 184.746 22.8984C184.727 22.4688 184.707 22.026 184.688 21.5703C184.674 21.1081 184.665 20.6621 184.658 20.2324V12.7227H186.797V27ZM190.547 27V12.7227H192.891V27H190.547Z" fill="white"/>
</svg>
