<svg width="198" height="39" viewBox="0 0 198 39" fill="none" xmlns="http://www.w3.org/2000/svg">
<rect width="39" height="39" rx="9" fill="white"/>
<path d="M59.8262 27H57.4727V14.7148H53.293V12.7227H63.9961V14.7148H59.8262V27ZM74.2695 27H66.1836V12.7227H74.2695V14.6953H68.5273V18.5723H73.9082V20.5352H68.5273V25.0176H74.2695V27ZM83.5176 27L79.4062 15.0762H79.3184C79.3379 15.3431 79.3607 15.7077 79.3867 16.1699C79.4128 16.6322 79.4355 17.127 79.4551 17.6543C79.4746 18.1816 79.4844 18.6862 79.4844 19.168V27H77.3555V12.7227H80.6465L84.6016 24.1191H84.6602L88.752 12.7227H92.0332V27H89.7969V19.0508C89.7969 18.6146 89.8034 18.1426 89.8164 17.6348C89.8359 17.127 89.8555 16.6452 89.875 16.1895C89.901 15.7337 89.9206 15.3691 89.9336 15.0957H89.8555L85.5879 27H83.5176ZM104.641 27L103.244 23.0352H97.7852L96.3887 27H93.918L99.2305 12.6641H101.828L107.131 27H104.641ZM102.639 21.0234L101.281 17.1172C101.229 16.9479 101.154 16.7103 101.057 16.4043C100.959 16.0918 100.861 15.776 100.764 15.457C100.666 15.1315 100.585 14.8581 100.52 14.6367C100.454 14.9036 100.373 15.2031 100.275 15.5352C100.184 15.8607 100.093 16.1667 100.002 16.4531C99.9173 16.7396 99.8522 16.9609 99.8066 17.1172L98.4395 21.0234H102.639ZM120.93 27H118.049L111.057 15.6035H110.969C110.995 15.9876 111.018 16.3945 111.037 16.8242C111.063 17.2539 111.083 17.6966 111.096 18.1523C111.115 18.6081 111.132 19.0703 111.145 19.5391V27H109.016V12.7227H111.877L118.859 24.041H118.928C118.915 23.709 118.898 23.3281 118.879 22.8984C118.859 22.4688 118.84 22.026 118.82 21.5703C118.807 21.1081 118.798 20.6621 118.791 20.2324V12.7227H120.93V27ZM134.025 12.7227C135.868 12.7227 137.212 13.1003 138.059 13.8555C138.905 14.6107 139.328 15.6686 139.328 17.0293C139.328 17.6478 139.23 18.237 139.035 18.7969C138.846 19.3503 138.534 19.8418 138.098 20.2715C137.661 20.6947 137.085 21.0299 136.369 21.2773C135.66 21.5247 134.784 21.6484 133.742 21.6484H132.219V27H129.875V12.7227H134.025ZM133.869 14.666H132.219V19.6953H133.498C134.234 19.6953 134.859 19.6107 135.373 19.4414C135.887 19.2656 136.278 18.9889 136.545 18.6113C136.812 18.2337 136.945 17.7357 136.945 17.1172C136.945 16.2904 136.695 15.6751 136.193 15.2715C135.699 14.8678 134.924 14.666 133.869 14.666ZM150.266 27H142.18V12.7227H150.266V14.6953H144.523V18.5723H149.904V20.5352H144.523V25.0176H150.266V27ZM158.303 27H155.949V14.7148H151.77V12.7227H162.473V14.7148H158.303V27ZM173.508 27L172.111 23.0352H166.652L165.256 27H162.785L168.098 12.6641H170.695L175.998 27H173.508ZM171.506 21.0234L170.148 17.1172C170.096 16.9479 170.021 16.7103 169.924 16.4043C169.826 16.0918 169.729 15.776 169.631 15.457C169.533 15.1315 169.452 14.8581 169.387 14.6367C169.322 14.9036 169.24 15.2031 169.143 15.5352C169.051 15.8607 168.96 16.1667 168.869 16.4531C168.785 16.7396 168.719 16.9609 168.674 17.1172L167.307 21.0234H171.506ZM189.797 27H186.916L179.924 15.6035H179.836C179.862 15.9876 179.885 16.3945 179.904 16.8242C179.93 17.2539 179.95 17.6966 179.963 18.1523C179.982 18.6081 179.999 19.0703 180.012 19.5391V27H177.883V12.7227H180.744L187.727 24.041H187.795C187.782 23.709 187.766 23.3281 187.746 22.8984C187.727 22.4688 187.707 22.026 187.688 21.5703C187.674 21.1081 187.665 20.6621 187.658 20.2324V12.7227H189.797V27ZM193.547 27V12.7227H195.891V27H193.547Z" fill="white"/>
<path fill-rule="evenodd" clip-rule="evenodd" d="M19.3596 2.80573C20.1814 2.80573 20.8476 3.4701 20.8476 4.28966L20.8476 9.11244C20.8476 9.93199 20.1814 10.5964 19.3596 10.5964C18.5378 10.5964 17.8716 9.93199 17.8716 9.11244L17.8716 4.28966C17.8716 3.4701 18.5378 2.80572 19.3596 2.80573ZM2.80566 13.9352C2.80566 12.7059 3.80496 11.7093 5.03766 11.7093H14.8956C16.6733 11.7093 18.269 12.4865 19.3596 13.7188C20.4502 12.4865 22.0459 11.7093 23.8236 11.7093H33.6816C34.9143 11.7093 35.9136 12.7059 35.9136 13.9352V19.3145C35.9136 22.5927 33.2488 25.2502 29.9616 25.2502H20.8476V34.7103C20.8476 35.5298 20.1814 36.1942 19.3596 36.1942C18.5378 36.1942 17.8716 35.5298 17.8716 34.7103V17.6451C17.8716 16.0059 16.5392 14.6772 14.8956 14.6772H5.78166V19.3145C5.78166 20.9536 7.11405 22.2823 8.75765 22.2823H13.7796C14.6014 22.2823 15.2676 22.9467 15.2676 23.7663C15.2676 24.5858 14.6014 25.2502 13.7796 25.2502H8.75765C5.47046 25.2502 2.80566 22.5927 2.80566 19.3145V13.9352ZM20.8476 17.6451V22.2823H29.9616C31.6052 22.2823 32.9376 20.9536 32.9376 19.3145V14.6772H23.8236C22.18 14.6772 20.8476 16.0059 20.8476 17.6451Z" fill="#529B03"/>
</svg>
