<svg width="509" height="509" viewBox="0 0 509 509" fill="none" xmlns="http://www.w3.org/2000/svg">
<circle cx="254.5" cy="254.5" r="254.5" fill="#E2E8F4"/>
<path d="M254.5 143.969C217.196 143.969 186.953 174.211 186.953 211.516C186.953 248.82 217.196 279.062 254.5 279.062C291.804 279.062 322.047 248.82 322.047 211.516C322.047 174.211 291.804 143.969 254.5 143.969ZM254.5 242.219C237.567 242.219 223.797 228.441 223.797 211.516C223.797 194.552 237.537 180.812 254.5 180.812C271.463 180.812 285.203 194.583 285.203 211.516C285.203 228.479 271.463 242.219 254.5 242.219ZM254.5 58C145.964 58 58 145.964 58 254.5C58 363.036 145.964 451 254.5 451C363.036 451 451 363.036 451 254.5C451 145.964 363.036 58 254.5 58ZM254.5 414.156C218.631 414.156 185.602 402.121 158.937 382.079C172.216 356.588 198.006 340.469 227.021 340.469H282.048C311.024 340.469 336.784 356.596 350.117 382.079C323.429 402.105 290.346 414.156 254.5 414.156ZM377.466 356.204C356.741 323.812 321.433 303.625 281.979 303.625H227.021C187.598 303.625 152.297 323.774 131.534 356.189C108.629 328.571 94.8438 293.109 94.8438 254.5C94.8438 166.459 166.466 94.8438 254.5 94.8438C342.534 94.8438 414.156 166.466 414.156 254.5C414.156 293.109 400.34 328.571 377.466 356.204Z" fill="#191A3E"/>
</svg>
