<svg width="550" height="550" viewBox="0 0 550 550" fill="none" xmlns="http://www.w3.org/2000/svg">
<rect width="550" height="550" fill="#E2E8F4"/>
<path d="M236.952 266V248.592H241.144V266H236.952ZM236.952 246.64V242.16H241.144V246.64H236.952ZM244.055 266V248.592H247.991V252.624L247.543 251.952C247.863 250.693 248.503 249.755 249.463 249.136C250.423 248.517 251.553 248.208 252.855 248.208C254.284 248.208 255.543 248.581 256.631 249.328C257.719 250.075 258.423 251.056 258.743 252.272L257.559 252.368C258.092 250.981 258.892 249.947 259.959 249.264C261.025 248.56 262.252 248.208 263.639 248.208C264.876 248.208 265.975 248.485 266.935 249.04C267.916 249.595 268.684 250.373 269.239 251.376C269.793 252.357 270.071 253.499 270.071 254.8V266H265.879V255.792C265.879 255.024 265.74 254.363 265.463 253.808C265.185 253.253 264.801 252.827 264.311 252.528C263.82 252.208 263.223 252.048 262.519 252.048C261.857 252.048 261.271 252.208 260.759 252.528C260.247 252.827 259.852 253.253 259.575 253.808C259.297 254.363 259.159 255.024 259.159 255.792V266H254.967V255.792C254.967 255.024 254.828 254.363 254.551 253.808C254.273 253.253 253.879 252.827 253.367 252.528C252.876 252.208 252.289 252.048 251.607 252.048C250.945 252.048 250.359 252.208 249.847 252.528C249.335 252.827 248.94 253.253 248.663 253.808C248.385 254.363 248.247 255.024 248.247 255.792V266H244.055ZM277.937 266.384C276.721 266.384 275.665 266.181 274.769 265.776C273.873 265.371 273.18 264.795 272.689 264.048C272.198 263.28 271.953 262.395 271.953 261.392C271.953 260.432 272.166 259.579 272.593 258.832C273.02 258.064 273.681 257.424 274.577 256.912C275.473 256.4 276.604 256.037 277.969 255.824L283.665 254.896V258.096L278.769 258.928C277.937 259.077 277.318 259.344 276.913 259.728C276.508 260.112 276.305 260.613 276.305 261.232C276.305 261.829 276.529 262.309 276.977 262.672C277.446 263.013 278.022 263.184 278.705 263.184C279.58 263.184 280.348 263.003 281.009 262.64C281.692 262.256 282.214 261.733 282.577 261.072C282.961 260.411 283.153 259.685 283.153 258.896V254.416C283.153 253.669 282.854 253.051 282.257 252.56C281.681 252.048 280.913 251.792 279.953 251.792C279.057 251.792 278.257 252.037 277.553 252.528C276.87 252.997 276.369 253.627 276.049 254.416L272.625 252.752C272.966 251.835 273.5 251.045 274.225 250.384C274.972 249.701 275.846 249.168 276.849 248.784C277.852 248.4 278.94 248.208 280.113 248.208C281.542 248.208 282.801 248.475 283.889 249.008C284.977 249.52 285.82 250.245 286.417 251.184C287.036 252.101 287.345 253.179 287.345 254.416V266H283.377V263.024L284.273 262.96C283.825 263.707 283.292 264.336 282.673 264.848C282.054 265.339 281.35 265.723 280.561 266C279.772 266.256 278.897 266.384 277.937 266.384ZM298.707 273.04C297.406 273.04 296.201 272.827 295.091 272.4C293.982 271.973 293.022 271.376 292.211 270.608C291.422 269.861 290.846 268.976 290.483 267.952L294.387 266.48C294.643 267.291 295.145 267.941 295.891 268.432C296.659 268.944 297.598 269.2 298.707 269.2C299.561 269.2 300.307 269.04 300.947 268.72C301.609 268.4 302.121 267.931 302.483 267.312C302.846 266.715 303.027 265.989 303.027 265.136V261.168L303.827 262.128C303.23 263.173 302.43 263.963 301.427 264.496C300.425 265.029 299.283 265.296 298.003 265.296C296.382 265.296 294.931 264.923 293.651 264.176C292.371 263.429 291.369 262.405 290.643 261.104C289.918 259.803 289.555 258.341 289.555 256.72C289.555 255.077 289.918 253.616 290.643 252.336C291.369 251.056 292.361 250.053 293.619 249.328C294.878 248.581 296.307 248.208 297.907 248.208C299.209 248.208 300.35 248.485 301.331 249.04C302.334 249.573 303.166 250.352 303.827 251.376L303.251 252.432V248.592H307.219V265.136C307.219 266.651 306.846 268.005 306.1 269.2C305.374 270.395 304.371 271.333 303.091 272.016C301.833 272.699 300.371 273.04 298.707 273.04ZM298.515 261.424C299.411 261.424 300.19 261.232 300.851 260.848C301.534 260.443 302.067 259.888 302.451 259.184C302.835 258.48 303.027 257.669 303.027 256.752C303.027 255.856 302.825 255.056 302.419 254.352C302.035 253.627 301.502 253.061 300.819 252.656C300.158 252.251 299.39 252.048 298.515 252.048C297.641 252.048 296.851 252.251 296.147 252.656C295.443 253.061 294.889 253.627 294.483 254.352C294.099 255.056 293.907 255.856 293.907 256.752C293.907 257.648 294.099 258.448 294.483 259.152C294.889 259.856 295.433 260.411 296.115 260.816C296.819 261.221 297.619 261.424 298.515 261.424ZM318.431 266.384C316.639 266.384 315.071 265.979 313.727 265.168C312.383 264.357 311.337 263.259 310.591 261.872C309.844 260.485 309.471 258.949 309.471 257.264C309.471 255.515 309.844 253.968 310.591 252.624C311.359 251.259 312.393 250.181 313.695 249.392C315.017 248.603 316.489 248.208 318.111 248.208C319.476 248.208 320.671 248.432 321.695 248.88C322.74 249.328 323.625 249.947 324.351 250.736C325.076 251.525 325.631 252.432 326.015 253.456C326.399 254.459 326.591 255.547 326.591 256.72C326.591 257.019 326.569 257.328 326.527 257.648C326.505 257.968 326.452 258.245 326.367 258.48H312.927V255.28H323.999L322.015 256.784C322.207 255.803 322.153 254.928 321.855 254.16C321.577 253.392 321.108 252.784 320.447 252.336C319.807 251.888 319.028 251.664 318.111 251.664C317.236 251.664 316.457 251.888 315.775 252.336C315.092 252.763 314.569 253.403 314.207 254.256C313.865 255.088 313.737 256.101 313.823 257.296C313.737 258.363 313.876 259.312 314.239 260.144C314.623 260.955 315.177 261.584 315.903 262.032C316.649 262.48 317.503 262.704 318.463 262.704C319.423 262.704 320.233 262.501 320.895 262.096C321.577 261.691 322.111 261.147 322.495 260.464L325.887 262.128C325.545 262.96 325.012 263.696 324.287 264.336C323.561 264.976 322.697 265.477 321.695 265.84C320.713 266.203 319.625 266.384 318.431 266.384ZM236.952 315.4V291.592H240.888V295.048L240.504 294.184C241.101 293.245 241.912 292.52 242.936 292.008C243.96 291.475 245.144 291.208 246.488 291.208C248.131 291.208 249.613 291.613 250.936 292.424C252.259 293.235 253.304 294.323 254.072 295.688C254.861 297.053 255.256 298.589 255.256 300.296C255.256 301.981 254.872 303.517 254.104 304.904C253.336 306.291 252.291 307.389 250.968 308.2C249.645 308.989 248.141 309.384 246.456 309.384C245.197 309.384 244.035 309.139 242.968 308.648C241.923 308.136 241.091 307.411 240.472 306.472L241.144 305.64V315.4H236.952ZM245.976 305.544C246.936 305.544 247.789 305.32 248.536 304.872C249.283 304.424 249.859 303.805 250.264 303.016C250.691 302.227 250.904 301.32 250.904 300.296C250.904 299.272 250.691 298.376 250.264 297.608C249.859 296.819 249.283 296.2 248.536 295.752C247.789 295.283 246.936 295.048 245.976 295.048C245.059 295.048 244.227 295.272 243.48 295.72C242.755 296.168 242.179 296.797 241.752 297.608C241.347 298.397 241.144 299.293 241.144 300.296C241.144 301.32 241.347 302.227 241.752 303.016C242.179 303.805 242.755 304.424 243.48 304.872C244.227 305.32 245.059 305.544 245.976 305.544ZM257.492 309V284.776H261.684V309H257.492ZM269.875 309.384C268.659 309.384 267.603 309.181 266.707 308.776C265.81 308.371 265.117 307.795 264.627 307.048C264.136 306.28 263.89 305.395 263.89 304.392C263.89 303.432 264.104 302.579 264.531 301.832C264.957 301.064 265.619 300.424 266.515 299.912C267.411 299.4 268.541 299.037 269.907 298.824L275.603 297.896V301.096L270.707 301.928C269.875 302.077 269.256 302.344 268.851 302.728C268.445 303.112 268.243 303.613 268.243 304.232C268.243 304.829 268.467 305.309 268.915 305.672C269.384 306.013 269.96 306.184 270.642 306.184C271.517 306.184 272.285 306.003 272.947 305.64C273.629 305.256 274.152 304.733 274.515 304.072C274.899 303.411 275.091 302.685 275.091 301.896V297.416C275.091 296.669 274.792 296.051 274.195 295.56C273.619 295.048 272.851 294.792 271.891 294.792C270.995 294.792 270.195 295.037 269.491 295.528C268.808 295.997 268.307 296.627 267.987 297.416L264.562 295.752C264.904 294.835 265.437 294.045 266.163 293.384C266.909 292.701 267.784 292.168 268.786 291.784C269.789 291.4 270.877 291.208 272.05 291.208C273.48 291.208 274.739 291.475 275.827 292.008C276.915 292.52 277.757 293.245 278.355 294.184C278.973 295.101 279.283 296.179 279.283 297.416V309H275.315V306.024L276.211 305.96C275.763 306.707 275.229 307.336 274.611 307.848C273.992 308.339 273.288 308.723 272.499 309C271.709 309.256 270.835 309.384 269.875 309.384ZM290.581 309.384C288.853 309.384 287.296 308.989 285.909 308.2C284.544 307.389 283.466 306.301 282.677 304.936C281.888 303.549 281.493 301.992 281.493 300.264C281.493 298.536 281.888 296.989 282.677 295.624C283.466 294.259 284.544 293.181 285.909 292.392C287.296 291.603 288.853 291.208 290.581 291.208C291.818 291.208 292.97 291.432 294.037 291.88C295.104 292.307 296.021 292.904 296.789 293.672C297.578 294.419 298.144 295.315 298.485 296.36L294.805 297.96C294.485 297.085 293.941 296.381 293.173 295.848C292.426 295.315 291.562 295.048 290.581 295.048C289.664 295.048 288.842 295.272 288.117 295.72C287.413 296.168 286.858 296.787 286.453 297.576C286.048 298.365 285.845 299.272 285.845 300.296C285.845 301.32 286.048 302.227 286.453 303.016C286.858 303.805 287.413 304.424 288.117 304.872C288.842 305.32 289.664 305.544 290.581 305.544C291.584 305.544 292.458 305.277 293.205 304.744C293.952 304.211 294.485 303.496 294.805 302.6L298.485 304.264C298.144 305.245 297.589 306.131 296.821 306.92C296.053 307.688 295.136 308.296 294.069 308.744C293.002 309.171 291.84 309.384 290.581 309.384ZM308.962 309.384C307.17 309.384 305.602 308.979 304.258 308.168C302.914 307.357 301.868 306.259 301.122 304.872C300.375 303.485 300.002 301.949 300.002 300.264C300.002 298.515 300.375 296.968 301.122 295.624C301.89 294.259 302.924 293.181 304.226 292.392C305.548 291.603 307.02 291.208 308.642 291.208C310.007 291.208 311.202 291.432 312.226 291.88C313.271 292.328 314.156 292.947 314.882 293.736C315.607 294.525 316.162 295.432 316.546 296.456C316.93 297.459 317.122 298.547 317.122 299.72C317.122 300.019 317.1 300.328 317.058 300.648C317.036 300.968 316.983 301.245 316.898 301.48H303.458V298.28H314.53L312.546 299.784C312.738 298.803 312.684 297.928 312.386 297.16C312.108 296.392 311.639 295.784 310.978 295.336C310.338 294.888 309.559 294.664 308.642 294.664C307.767 294.664 306.988 294.888 306.306 295.336C305.623 295.763 305.1 296.403 304.738 297.256C304.396 298.088 304.268 299.101 304.354 300.296C304.268 301.363 304.407 302.312 304.77 303.144C305.154 303.955 305.708 304.584 306.434 305.032C307.18 305.48 308.034 305.704 308.994 305.704C309.954 305.704 310.764 305.501 311.426 305.096C312.108 304.691 312.642 304.147 313.026 303.464L316.418 305.128C316.076 305.96 315.543 306.696 314.818 307.336C314.092 307.976 313.228 308.477 312.226 308.84C311.244 309.203 310.156 309.384 308.962 309.384ZM319.339 309V284.776H323.531V295.016L322.955 294.408C323.361 293.363 324.022 292.573 324.939 292.04C325.878 291.485 326.966 291.208 328.203 291.208C329.483 291.208 330.614 291.485 331.595 292.04C332.598 292.595 333.377 293.373 333.931 294.376C334.486 295.357 334.763 296.499 334.763 297.8V309H330.571V298.792C330.571 298.024 330.422 297.363 330.123 296.808C329.825 296.253 329.409 295.827 328.875 295.528C328.363 295.208 327.755 295.048 327.051 295.048C326.369 295.048 325.761 295.208 325.227 295.528C324.694 295.827 324.278 296.253 323.979 296.808C323.681 297.363 323.531 298.024 323.531 298.792V309H319.339ZM345.86 309.384C344.154 309.384 342.596 308.989 341.188 308.2C339.802 307.411 338.692 306.333 337.86 304.968C337.05 303.603 336.644 302.045 336.644 300.296C336.644 298.547 337.05 296.989 337.86 295.624C338.692 294.259 339.802 293.181 341.188 292.392C342.575 291.603 344.132 291.208 345.86 291.208C347.567 291.208 349.114 291.603 350.5 292.392C351.887 293.181 352.986 294.259 353.796 295.624C354.628 296.968 355.044 298.525 355.044 300.296C355.044 302.045 354.628 303.603 353.796 304.968C352.964 306.333 351.855 307.411 350.468 308.2C349.082 308.989 347.546 309.384 345.86 309.384ZM345.86 305.544C346.799 305.544 347.62 305.32 348.324 304.872C349.05 304.424 349.615 303.805 350.02 303.016C350.447 302.205 350.66 301.299 350.66 300.296C350.66 299.272 350.447 298.376 350.02 297.608C349.615 296.819 349.05 296.2 348.324 295.752C347.62 295.283 346.799 295.048 345.86 295.048C344.9 295.048 344.058 295.283 343.332 295.752C342.607 296.2 342.031 296.819 341.604 297.608C341.199 298.376 340.996 299.272 340.996 300.296C340.996 301.299 341.199 302.205 341.604 303.016C342.031 303.805 342.607 304.424 343.332 304.872C344.058 305.32 344.9 305.544 345.86 305.544ZM357.263 309V284.776H361.455V309H357.263ZM372.462 309.384C370.776 309.384 369.272 308.989 367.95 308.2C366.627 307.389 365.582 306.291 364.814 304.904C364.046 303.517 363.662 301.981 363.662 300.296C363.662 298.589 364.046 297.053 364.814 295.688C365.582 294.323 366.627 293.235 367.95 292.424C369.294 291.613 370.787 291.208 372.43 291.208C373.752 291.208 374.926 291.475 375.95 292.008C376.995 292.52 377.816 293.245 378.414 294.184L377.774 295.048V284.776H381.966V309H377.998V305.64L378.446 306.472C377.848 307.411 377.016 308.136 375.95 308.648C374.883 309.139 373.72 309.384 372.462 309.384ZM372.91 305.544C373.87 305.544 374.712 305.32 375.438 304.872C376.163 304.424 376.728 303.805 377.134 303.016C377.56 302.227 377.774 301.32 377.774 300.296C377.774 299.293 377.56 298.397 377.134 297.608C376.728 296.797 376.163 296.168 375.438 295.72C374.712 295.272 373.87 295.048 372.91 295.048C371.971 295.048 371.128 295.283 370.382 295.752C369.635 296.2 369.048 296.819 368.622 297.608C368.216 298.376 368.014 299.272 368.014 300.296C368.014 301.32 368.216 302.227 368.622 303.016C369.048 303.805 369.635 304.424 370.382 304.872C371.128 305.32 371.971 305.544 372.91 305.544ZM393.162 309.384C391.37 309.384 389.802 308.979 388.458 308.168C387.114 307.357 386.068 306.259 385.322 304.872C384.575 303.485 384.202 301.949 384.202 300.264C384.202 298.515 384.575 296.968 385.322 295.624C386.09 294.259 387.124 293.181 388.426 292.392C389.748 291.603 391.22 291.208 392.842 291.208C394.207 291.208 395.402 291.432 396.426 291.88C397.471 292.328 398.356 292.947 399.082 293.736C399.807 294.525 400.362 295.432 400.746 296.456C401.13 297.459 401.322 298.547 401.322 299.72C401.322 300.019 401.3 300.328 401.258 300.648C401.236 300.968 401.183 301.245 401.098 301.48H387.658V298.28H398.73L396.746 299.784C396.938 298.803 396.884 297.928 396.586 297.16C396.308 296.392 395.839 295.784 395.178 295.336C394.538 294.888 393.759 294.664 392.842 294.664C391.967 294.664 391.188 294.888 390.506 295.336C389.823 295.763 389.3 296.403 388.938 297.256C388.596 298.088 388.468 299.101 388.554 300.296C388.468 301.363 388.607 302.312 388.97 303.144C389.354 303.955 389.908 304.584 390.634 305.032C391.38 305.48 392.234 305.704 393.194 305.704C394.154 305.704 394.964 305.501 395.626 305.096C396.308 304.691 396.842 304.147 397.226 303.464L400.618 305.128C400.276 305.96 399.743 306.696 399.018 307.336C398.292 307.976 397.428 308.477 396.426 308.84C395.444 309.203 394.356 309.384 393.162 309.384ZM403.539 309V291.592H407.475V295.464L407.155 294.888C407.561 293.587 408.19 292.68 409.043 292.168C409.918 291.656 410.963 291.4 412.179 291.4H413.203V295.112H411.699C410.505 295.112 409.545 295.485 408.819 296.232C408.094 296.957 407.731 297.981 407.731 299.304V309H403.539Z" fill="#1A202C"/>
<path d="M147.213 302.248L147.133 302.327C146.065 299.992 145.392 297.34 145.115 294.41C145.392 297.3 146.144 299.912 147.213 302.248Z" fill="#85A8F8"/>
<path d="M172.625 268.088C177.828 268.088 182.046 263.87 182.046 258.667C182.046 253.464 177.828 249.246 172.625 249.246C167.422 249.246 163.204 253.464 163.204 258.667C163.204 263.87 167.422 268.088 172.625 268.088Z" fill="#191A3E"/>
<path d="M201.085 234.917H167.914C153.506 234.917 144.917 243.506 144.917 257.915V291.085C144.917 295.4 145.669 299.16 147.133 302.327C150.537 309.848 157.821 314.083 167.914 314.083H201.085C215.494 314.083 224.083 305.494 224.083 291.085V282.021V257.915C224.083 243.506 215.494 234.917 201.085 234.917ZM217.631 276.479C214.544 273.827 209.556 273.827 206.469 276.479L190.002 290.61C186.914 293.263 181.927 293.263 178.839 290.61L177.494 289.502C174.683 287.048 170.21 286.81 167.044 288.948L152.239 298.883C151.369 296.667 150.854 294.094 150.854 291.085V257.915C150.854 246.752 156.752 240.854 167.914 240.854H201.085C212.248 240.854 218.146 246.752 218.146 257.915V276.915L217.631 276.479Z" fill="#191A3E"/>
</svg>
